<svg width="20" height="20" viewBox="0 0 20 20" fill="none" xmlns="http://www.w3.org/2000/svg">
<path d="M11.7498 5.33366H11.759M8.08317 16.3337H4.4165C3.68716 16.3337 2.98769 16.0439 2.47196 15.5282C1.95624 15.0125 1.6665 14.313 1.6665 13.5837V4.41699C1.6665 3.68765 1.95624 2.98817 2.47196 2.47245C2.98769 1.95672 3.68716 1.66699 4.4165 1.66699H13.5832C14.3125 1.66699 15.012 1.95672 15.5277 2.47245C16.0434 2.98817 16.3332 3.68765 16.3332 4.41699V8.08366" stroke="#025F96" stroke-width="2" stroke-linecap="round" stroke-linejoin="round"/>
<path d="M1.6665 11.7503L5.33317 8.08366C6.18384 7.26508 7.2325 7.26508 8.08317 8.08366L10.8332 10.8337L11.7498 9.917C12.034 9.64383 12.3402 9.46141 12.6546 9.37066M14.8848 12.3095C15.0636 12.1307 15.2758 11.9889 15.5094 11.8922C15.7429 11.7954 15.9933 11.7456 16.2461 11.7456C16.4989 11.7456 16.7492 11.7954 16.9828 11.8922C17.2164 11.9889 17.4286 12.1307 17.6073 12.3095C17.7861 12.4883 17.9279 12.7005 18.0246 12.934C18.1214 13.1676 18.1712 13.4179 18.1712 13.6707C18.1712 13.9236 18.1214 14.1739 18.0246 14.4075C17.9279 14.641 17.7861 14.8532 17.6073 15.032L14.4998 18.167H11.7498V15.417L14.8848 12.3095Z" stroke="#025F96" stroke-width="2" stroke-linecap="round" stroke-linejoin="round"/>
</svg>
